<?xml version="1.0" encoding="UTF-8" standalone="no"?>
<svg
   xmlns:dc="http://purl.org/dc/elements/1.1/"
   xmlns:cc="http://creativecommons.org/ns#"
   xmlns:rdf="http://www.w3.org/1999/02/22-rdf-syntax-ns#"
   xmlns:svg="http://www.w3.org/2000/svg"
   xmlns="http://www.w3.org/2000/svg"
   xmlns:sodipodi="http://sodipodi.sourceforge.net/DTD/sodipodi-0.dtd"
   xmlns:inkscape="http://www.inkscape.org/namespaces/inkscape"
   id="svg2832"
   version="1.1"
   inkscape:version="1.0.1 (c497b03c, 2020-09-10)"
   width="150"
   height="150"
   sodipodi:docname="p0106011_Scuole_azzurro.svg">
  <metadata
     id="metadata2838">
    <rdf:RDF>
      <cc:Work
         rdf:about="">
        <dc:format>image/svg+xml</dc:format>
        <dc:type
           rdf:resource="http://purl.org/dc/dcmitype/StillImage" />
        <dc:title></dc:title>
      </cc:Work>
    </rdf:RDF>
  </metadata>
  <defs
     id="defs2836">
    <inkscape:perspective
       sodipodi:type="inkscape:persp3d"
       inkscape:vp_x="0 : 0.5 : 1"
       inkscape:vp_y="0 : 1000 : 0"
       inkscape:vp_z="1 : 0.5 : 1"
       inkscape:persp3d-origin="0.5 : 0.33333333 : 1"
       id="perspective2840" />
  </defs>
  <sodipodi:namedview
     pagecolor="#ffffff"
     bordercolor="#666666"
     borderopacity="1"
     objecttolerance="10"
     gridtolerance="10"
     guidetolerance="10"
     inkscape:pageopacity="0"
     inkscape:pageshadow="2"
     inkscape:window-width="1680"
     inkscape:window-height="942"
     id="namedview2834"
     showgrid="false"
     inkscape:zoom="1.2020815"
     inkscape:cx="104.62542"
     inkscape:cy="34.379233"
     inkscape:window-x="0"
     inkscape:window-y="23"
     inkscape:window-maximized="1"
     inkscape:current-layer="svg2832"
     inkscape:document-rotation="0" />
  <g
     id="g2852"
     transform="translate(-15.695815,0.88235142)">
    <path
       sodipodi:nodetypes="ccccccccccccc"
       style="fill:#72c351"
       d="m 15.588235,74.117647 l 0,-66.6176472 l 8.235294,-8.38235264 l 66.764706,0 l 66.323525,0 l 8.67647,10.58823504 l 0,64.4117648 l 0,66.323533 l -7.79411,8.67647 l -67.205885,0 l -65.294117,0 l -9.705883,-9.41177 l 0,-65.588233 z"
       id="path2848" />
    <path
       sodipodi:nodetypes="cscccccsscccccccccscccccccccccccsssssssscccccsccssscccsccccccscccsccssssssssssssssssscccccccsssccssssssssssccsssssssscccsssc"
       style="fill:#140404"
       d="m 20.971176,147.5455 c -1.714382,-0.85189 -3.626882,-2.66783 -4.25,-4.03542 c -0.808202,-1.77381 -1.132941,-21.84951 -1.132941,-70.039486 l 0,-67.5529468 l 3.4,-3.4 l 3.4,-3.40000004 l 67.552947,0 c 48.386048,0 68.261948,0.32304358 70.051808,1.1385574 c 2.83136,1.29005334 4.83514,0.80393374 5.50722,9.73935554 c 0.68956,9.1680359 0.008,28.2079989 -0.14139,65.5442439 l -0.27059,67.533166 l -2.77235,2.77234 l -2.77234,2.77234 l -67.727652,0.23837 c -59.465143,0.20929 -68.107922,0.0494 -70.844712,-1.31052 z m 138.851274,-3.34546 l 3.26578,-2.9176 l 0.27116,-65.63668 c 0.296,-71.6506026 0.35963,-70.780604 -5.3664,-73.3895554 C 156.20513,1.4416054 136.75011,1.1176472 89.617907,1.1176472 l -65.876221,0 L 20.66496,3.7065408 l -3.076725,2.5888937 l 0,67.4880295 l 0,67.488036 l 2.923077,2.92307 l 2.923077,2.92308 l 66.561146,0 l 66.561155,0 l 3.26577,-2.91761 l -1e-5,0 z M 111.2549,122.45098 c -0.36667,-0.36666 -0.66667,-2.53402 -0.66667,-4.81634 c 0,-2.28232 -0.46917,-6.68766 -1.0426,-9.78965 c -0.91784,-4.96505 -0.79927,-6.11696 0.99081,-9.625818 c 1.11838,-2.192208 1.76795,-4.677642 1.44348,-5.523188 c -0.75517,-1.967944 3.37368,-10.578337 5.07252,-10.578337 c 0.70718,0 2.74274,0.29139 4.52346,0.647534 c 3.41752,0.683505 5.7345,4.406424 6.49828,10.441415 c 0.59647,4.713106 1.10742,4.962807 8.70934,4.256284 c 9.99,-0.928474 8.75415,1.401558 -2.2655,4.27129 l -8.42979,2.19528 l -3.18471,-3.6559 l -3.18471,-3.655903 l -2.81529,2.77273 c -2.9345,2.890143 -2.9711,3.076313 -3.19029,16.227273 c -0.11514,6.90849 -0.7152,8.57646 -2.45833,6.83333 z m -45.145482,-7.08333 c -0.313194,-2.0625 -1.287356,-7.88453 -2.164803,-12.93785 c -1.23847,-7.132494 -1.344925,-9.906257 -0.47587,-12.399229 c 0.61572,-1.766254 1.11949,-4.169419 1.11949,-5.340367 c 0,-4.350792 4.253987,-8.705557 10.830163,-11.086732 l 6.240564,-2.259654 l 2.332301,3.136915 c 3.881385,5.220409 5.632517,8.268036 5.072501,8.828051 c -0.292317,0.292318 -0.09331,1.683981 0.442242,3.092585 l 0.973728,2.561099 l 5.804251,-1.386789 c 12.085775,-2.887612 11.998535,-1.472822 -0.279053,4.525414 l -8.600087,4.201585 L 82.81233,91.710163 c -2.525884,-2.525884 -4.951435,-4.592516 -5.390114,-4.592516 c -0.438679,0 -2.380784,1.537483 -4.315789,3.416629 l -3.518192,3.416629 l 0,12.583375 c 0,10.34434 -0.25884,12.58337 -1.454687,12.58337 c -0.91307,0 -1.666705,-1.39622 -2.02413,-3.75 z M 36.832924,89.498824 c -3.984579,-3.600769 -7.244689,-6.986371 -7.244689,-7.523558 c 0,-1.508242 7.275129,-9.857619 8.589318,-9.857619 c 0.641186,0 1.725993,0.675 2.410682,1.5 c 1.890567,2.277993 4.306697,1.791734 6.242432,-1.256323 c 0.958338,-1.509022 3.579616,-4.993677 5.825064,-7.743677 c 2.245447,-2.75 5.709192,-7.395075 7.697211,-10.322388 c 1.988018,-2.927313 4.822922,-5.947247 6.299786,-6.710963 c 2.501755,-1.293707 3.359875,-1.066722 12.560357,3.322388 c 10.568696,5.041821 11.154996,5.395689 15.220353,9.186423 c 2.376254,2.215733 2.46084,2.51395 0.806194,2.842313 c -1.016731,0.20177 -4.505472,-0.825478 -7.752756,-2.282773 c -3.247285,-1.457295 -6.352914,-2.372278 -6.901398,-2.033296 c -0.548483,0.338981 -0.997243,2.395447 -0.997243,4.569923 c 0,3.841338 -0.159696,4.024218 -5.62443,6.440983 c -3.093437,1.368064 -5.733638,2.48739 -5.867114,2.48739 c -0.133476,0 -1.433867,-1.8 -2.889758,-4 c -1.455891,-2.2 -3.161662,-4 -3.790602,-4 c -0.62894,0 -4.225377,3.131127 -7.992084,6.958059 l -6.848558,6.95806 l 3.083273,3.511654 c 3.662202,4.171017 3.398648,5.731525 -1.830349,10.837504 l -3.751,3.662754 l -7.244689,-6.546854 z m 96.319176,2.924673 c -1.48147,-3.860642 0.0478,-6.203355 4.74029,-7.261678 c 2.90557,-0.655316 3.91777,-0.456419 5.26757,1.035073 c 2.43668,2.692501 1.30643,4.258182 -4.38859,6.079379 c -4.41027,1.410347 -5.12735,1.429135 -5.61927,0.147226 z m 0.58138,-15.319037 c -1.49679,-4.293722 -3.98973,-4.919597 -6.5927,-1.655161 c -2.7829,3.49009 -8.8008,3.723199 -12.25852,0.474845 c -2.08303,-1.956909 -2.69088,-2.06477 -5.63545,-1 c -1.81531,0.656427 -3.54241,1.193503 -3.83799,1.193503 c -1.03496,0 -7.934764,-11.157462 -7.572284,-12.244902 c 0.201349,-0.604048 2.249574,0.603348 4.551614,2.6831 c 4.66114,4.211064 4.72506,4.206511 12.71694,-0.905829 c 3.03708,-1.942803 6.21293,-3.532369 7.05744,-3.532369 c 2.6354,0 13.13057,7.766623 13.78208,10.199002 c 0.91596,3.419736 0.77075,7.800998 -0.25854,7.800998 c -0.49621,0 -1.37487,-1.355934 -1.95259,-3.013187 z m -4.3938,-17.14437 c 0.53516,-2.046386 0.32129,-2.124261 -4.15041,-1.511346 c -4.13725,0.567074 -5.01384,0.347005 -7.15783,-1.796988 c -3.11767,-3.117668 -3.11335,-6.954869 0.0113,-10.079564 c 2.96742,-2.967422 5.8691,-3.13089 8.52001,-0.479981 c 1.83987,1.839863 2.47202,3.492476 3.26116,8.525436 c 0.21494,1.370964 0.961,1.910492 2.37205,1.715414 c 1.57871,-0.218259 2.03909,0.247873 1.97535,2 c -0.0787,2.163767 -1.67026,3.558141 -4.2395,3.714301 c -0.70055,0.04258 -0.93397,-0.780206 -0.59217,-2.087272 l 4e-5,0 z M 54.088235,45.951005 C 48.861791,42.846043 48.088957,37.291994 52.275326,32.922366 c 3.432663,-3.582928 7.202527,-3.642374 10.676545,-0.168355 c 4.858981,4.85898 2.659911,12.754172 -3.863636,13.87139 c -1.65,0.282578 -3.9,-0.0209 -5,-0.674396 z"
       id="path2846" />
  </g>
  <path
     style="fill:#ff7f2a;stroke-width:0.83189"
     d="M 4.9674083,144.36166 1.8869618,141.20699 V 74.569045 7.9310965 L 4.8491716,5.3302417 7.8113815,2.729387 75.121089,2.9563659 l 67.309701,0.226979 1.80635,1.8066323 c 2.92607,2.926545 3.38348,14.5332588 3.08678,78.3268418 l -0.27209,58.504321 -3.10737,2.8476 -3.10738,2.84758 H 74.442469 8.0478548 Z M 97.918762,122.35164 c 0.217855,-1.02947 0.518533,-5.69761 0.668166,-10.37365 0.258792,-8.08734 0.390306,-8.62532 2.697092,-11.0331 l 2.42505,-2.531188 3.46491,3.400558 c 3.89658,3.8242 3.65231,3.82694 16.00305,-0.17921 6.92943,-2.247662 6.34515,-3.602995 -1.57882,-3.662284 -8.38693,-0.06272 -7.9911,0.138261 -9.00103,-4.570888 -1.29768,-6.050846 -2.96781,-8.797069 -5.9909,-9.850923 -5.05057,-1.76064 -6.34806,-1.277621 -8.621965,3.209718 -1.151561,2.272483 -2.093744,5.066254 -2.093744,6.208381 0,1.142119 -0.740524,3.955314 -1.645612,6.25154 -1.469925,3.729226 -1.553613,4.909306 -0.78389,11.053346 0.473953,3.78311 1.050245,8.46937 1.280645,10.41392 0.457507,3.8613 2.487078,4.92416 3.177048,1.66378 z m -44.127656,-3.60358 c 0.277721,-0.72372 0.504948,-6.26104 0.504948,-12.30514 V 95.453644 l 3.747933,-3.678319 3.747934,-3.67832 4.888487,4.837476 4.888487,4.837475 9.249222,-4.731085 c 5.087075,-2.602103 9.249222,-5.073425 9.249222,-5.491824 0,-1.090034 -3.799643,-0.917201 -9.544904,0.434164 -2.733229,0.642893 -5.259107,0.989916 -5.613063,0.771162 C 74.555417,88.535611 74.026679,86.86114 73.7344,85.033328 73.258301,82.05597 71.926635,79.611313 67.476668,73.545452 l -1.377467,-1.877659 -5.101285,1.860022 c -2.805707,1.023011 -6.591609,3.208492 -8.413116,4.856622 -3.328063,3.011289 -3.850991,4.378126 -5.471357,14.301134 -0.470641,2.882167 1.449117,17.857529 3.10984,24.258779 0.831779,3.20609 2.672572,4.1367 3.567823,1.80371 z M 36.826356,86.890431 c 0,-0.939395 -1.183417,-3.055831 -2.629815,-4.703188 l -2.629816,-2.995195 6.561779,-6.600491 c 3.608978,-3.630269 7.015239,-6.600491 7.569467,-6.600491 0.55423,0 2.217462,1.684578 3.696072,3.743507 1.478611,2.058929 2.905687,3.734668 3.17128,3.723865 0.265592,-0.01081 2.916175,-1.227443 5.890183,-2.703644 5.293464,-2.627504 5.412718,-2.759379 5.665305,-6.264849 0.32577,-4.521117 1.49674,-4.980176 7.030667,-2.756262 10.399402,4.179197 13.058296,2.633052 5.397643,-3.138728 C 71.30624,54.644802 56.634812,47.689479 53.545314,47.689479 c -3.435889,0 -4.975368,1.527116 -15.045807,14.924983 -9.397178,12.502149 -11.109083,13.943092 -13.352933,11.239418 -0.58791,-0.708389 -1.830388,-1.176327 -2.761061,-1.039863 -1.767081,0.259107 -8.852086,8.303196 -8.852086,10.050376 0,0.552796 3.275568,4.096599 7.27904,7.875112 l 7.279041,6.870033 4.367424,-4.50556 c 2.402084,-2.47806 4.367424,-5.274151 4.367424,-6.213547 z m 88.804294,5.743529 c 3.93117,-1.784421 4.3942,-3.323185 1.7851,-5.932293 -3.15137,-3.151367 -10.72792,-0.236947 -10.72792,4.126642 0,1.285811 0.24957,2.587412 0.5546,2.892433 1.02371,1.023724 4.82316,0.531461 8.38822,-1.086782 z m -4.78337,-15.924422 c 0,-3.94222 -0.25924,-4.492525 -3.52091,-7.473985 -1.9365,-1.770136 -5.13079,-4.066581 -7.09842,-5.103211 l -3.5775,-1.884782 -7.758635,4.103028 -7.758633,4.103028 -3.738191,-3.063165 c -3.437504,-2.816777 -5.646556,-3.816618 -5.646556,-2.555693 0,1.124429 5.270017,10.301434 6.614427,11.518109 1.264548,1.144396 1.839642,1.163171 4.701412,0.153481 3.055516,-1.078051 3.441713,-1.026327 6.139575,0.822275 4.070561,2.789199 8.135091,2.609409 12.091641,-0.534864 2.91022,-2.312746 3.26874,-2.404931 4.61497,-1.186612 0.80279,0.726518 1.6876,2.229268 1.96624,3.339444 0.27863,1.110176 1.061,2.018502 1.73859,2.018502 0.9275,0 1.23199,-1.051765 1.23199,-4.255555 z m -3.27641,-14.929071 c 2.11841,-2.118417 1.79576,-4.436288 -0.66647,-4.787841 -1.38412,-0.197622 -2.0756,-1.134536 -2.76287,-3.743507 -1.21384,-4.607962 -2.90823,-7.124421 -5.44692,-8.089629 -4.35978,-1.657585 -9.799667,3.791856 -8.833018,8.848535 0.212228,1.110229 1.525068,2.977168 2.917418,4.148754 2.23068,1.876984 3.00991,2.064365 6.55641,1.576598 3.91968,-0.539095 4.02485,-0.497178 4.02485,1.604229 0,2.646347 1.8161,2.83736 4.2106,0.442861 z M 47.982926,45.129981 c 2.455763,-2.918509 2.763523,-6.326496 0.89723,-9.935509 -1.546911,-2.991397 -3.586224,-4.1428 -7.337535,-4.1428 -3.903042,0 -8.043826,4.54435 -8.043826,8.827786 0,4.453825 3.694344,7.810021 8.596907,7.810021 3.147824,0 4.07142,-0.401538 5.887224,-2.559498 z"
     id="path18" />
  <path
     style="fill:#00ffff;stroke-width:0.83189"
     d="M 5.3877294,143.9493 1.8869618,140.38228 V 74.649643 8.9170107 L 4.8448718,6.0501778 7.8027819,3.1833449 74.931634,3.4622592 c 76.838216,0.3192559 69.587126,-0.5523425 70.898786,8.5221958 0.42461,2.937564 0.77953,33.247764 0.78873,67.355999 l 0.0167,62.014966 -3.15466,3.08045 -3.15467,3.08045 H 74.607526 8.888497 Z M 98.511941,119.22338 c 0.297908,-2.5117 0.578671,-6.87769 0.623918,-9.70221 0.06805,-4.24943 0.456333,-5.58004 2.250291,-7.71203 l 2.16801,-2.576534 3.24167,2.928654 c 1.78292,1.61076 3.96997,2.92865 4.86011,2.92865 2.14199,0 15.20194,-4.10265 16.25546,-5.106481 1.46861,-1.399356 -1.42382,-2.354516 -7.17023,-2.367793 -3.39757,-0.0075 -5.83319,-0.411794 -6.34673,-1.052599 -0.45832,-0.571925 -1.44335,-3.167822 -2.18895,-5.768652 -1.6416,-5.726296 -4.31585,-8.165512 -8.95232,-8.165512 -2.74593,0 -3.475591,0.403476 -4.889347,2.703644 -0.913956,1.487004 -2.036168,4.201046 -2.493799,6.031205 -0.457632,1.830159 -1.433913,5.432926 -2.16952,8.006146 -1.153358,4.034572 -1.203405,5.866752 -0.363537,13.310242 1.200576,10.64041 1.505015,11.7063 3.248599,11.37395 1.006737,-0.19189 1.532583,-1.51054 1.926375,-4.83068 z m -44.401944,-11.28852 0.229887,-11.692342 3.726019,-3.656816 3.726018,-3.656807 4.778942,4.713583 4.778943,4.71359 9.090977,-4.744013 c 11.070102,-5.776779 12.148232,-7.326724 4.540179,-6.527045 -2.921739,0.307101 -6.337061,0.783084 -7.589604,1.057732 -1.546476,0.339104 -2.383672,0.135149 -2.608638,-0.635497 -0.182206,-0.624176 -0.753535,-2.632268 -1.269618,-4.462427 -0.516084,-1.830158 -2.349766,-5.268476 -4.074849,-7.640706 L 66.30174,71.090968 61.495203,73.04449 c -2.643595,1.074437 -6.099131,2.828178 -7.678966,3.8972 -6.277632,4.247864 -8.15448,13.797474 -5.825121,29.63886 1.66065,11.29366 2.462995,13.70409 4.435609,13.32555 1.287729,-0.2471 1.479586,-1.61157 1.683272,-11.97124 z M 33.018526,93.145789 c 4.384429,-5.132031 4.676925,-7.140705 1.622868,-11.144777 l -2.184962,-2.864633 6.115621,-6.156712 c 3.363592,-3.38619 6.489134,-6.15671 6.945648,-6.15671 0.456514,0 2.183426,1.571413 3.83758,3.492029 l 3.007555,3.49203 3.830182,-1.46276 c 5.725002,-2.186398 7.78634,-4.146999 8.40092,-7.99037 0.630413,-3.942386 1.425501,-4.114549 7.804655,-1.689962 5.176511,1.967488 8.517952,2.155921 8.517952,0.480349 0,-3.435239 -19.003378,-14.43755 -26.37116,-15.268006 -4.561588,-0.514156 -5.196822,0.03895 -16.037865,13.964424 -9.74249,12.514366 -10.404487,13.136456 -12.552001,11.795311 -0.871718,-0.544397 -2.287496,-0.989813 -3.146173,-0.989813 -1.928377,0 -9.275919,7.700648 -9.275919,9.721696 0,1.634626 13.107926,15.235015 14.683363,15.235015 0.546647,0 2.707428,-2.005705 4.801736,-4.457111 z m 92.817654,-0.327548 c 3.3726,-1.686217 4.08225,-3.819849 2.02616,-6.091809 -3.46736,-3.831389 -11.17451,-0.591365 -11.17451,4.697669 0,2.740396 0.12127,2.851187 3.11959,2.849948 1.71577,-7.16e-4 4.42872,-0.655829 6.02876,-1.455808 z m -4.9889,-16.357845 c 0,-4.330502 -0.1528,-4.639409 -3.95148,-7.988322 -2.17331,-1.915994 -5.37996,-4.214101 -7.12587,-5.106908 l -3.17439,-1.623283 -7.648828,4.086869 -7.648824,4.086869 -3.63977,-2.794167 c -3.726586,-2.860818 -5.909683,-3.538407 -5.909683,-1.83425 0,1.682703 5.914366,11.605625 7.214719,12.104618 0.687849,0.263953 2.598801,0.06615 4.246567,-0.439564 2.553563,-0.783711 3.386368,-0.678168 5.640225,0.714789 3.646554,2.25369 8.198794,2.078518 12.570954,-0.483735 l 3.6141,-2.118002 1.74047,2.949892 c 2.61367,4.42983 4.07181,3.873043 4.07181,-1.554806 z m -3.18509,-14.341769 c 2.10002,-1.900487 1.90292,-4.005077 -0.52402,-5.595262 -1.13529,-0.743868 -2.49341,-2.835742 -3.05241,-4.701524 -1.27839,-4.266869 -4.21514,-7.459924 -6.86112,-7.459924 -1.13059,0 -3.17987,0.945997 -4.55396,2.102214 -6.351419,5.344364 -2.721707,13.645239 5.9841,13.685205 3.32111,0.01525 4.10584,0.310945 4.46445,1.682279 0.52881,2.022199 2.48877,2.146024 4.54296,0.287012 z M 48.096598,45.488278 c 2.382885,-2.571175 2.738451,-7.34535 0.822936,-11.049547 -1.433259,-2.771618 -2.74768,-3.387059 -7.233866,-3.387059 -4.900829,0 -8.186873,3.496248 -8.186873,8.710579 0,5.350612 2.756318,7.927228 8.480101,7.927228 3.340979,0 4.446266,-0.397692 6.117702,-2.201201 z"
     id="path19" />
</svg>
