<?xml version="1.0" encoding="UTF-8" standalone="no"?>
<svg
   xmlns:dc="http://purl.org/dc/elements/1.1/"
   xmlns:cc="http://creativecommons.org/ns#"
   xmlns:rdf="http://www.w3.org/1999/02/22-rdf-syntax-ns#"
   xmlns:svg="http://www.w3.org/2000/svg"
   xmlns="http://www.w3.org/2000/svg"
   xmlns:sodipodi="http://sodipodi.sourceforge.net/DTD/sodipodi-0.dtd"
   xmlns:inkscape="http://www.inkscape.org/namespaces/inkscape"
   id="svg2832"
   version="1.1"
   inkscape:version="1.0.1 (c497b03c, 2020-09-10)"
   width="150"
   height="150"
   sodipodi:docname="p0106011_Scuole_arancio.svg">
  <metadata
     id="metadata2838">
    <rdf:RDF>
      <cc:Work
         rdf:about="">
        <dc:format>image/svg+xml</dc:format>
        <dc:type
           rdf:resource="http://purl.org/dc/dcmitype/StillImage" />
        <dc:title></dc:title>
      </cc:Work>
    </rdf:RDF>
  </metadata>
  <defs
     id="defs2836">
    <inkscape:perspective
       sodipodi:type="inkscape:persp3d"
       inkscape:vp_x="0 : 0.5 : 1"
       inkscape:vp_y="0 : 1000 : 0"
       inkscape:vp_z="1 : 0.5 : 1"
       inkscape:persp3d-origin="0.5 : 0.33333333 : 1"
       id="perspective2840" />
  </defs>
  <sodipodi:namedview
     pagecolor="#ffffff"
     bordercolor="#666666"
     borderopacity="1"
     objecttolerance="10"
     gridtolerance="10"
     guidetolerance="10"
     inkscape:pageopacity="0"
     inkscape:pageshadow="2"
     inkscape:window-width="1680"
     inkscape:window-height="942"
     id="namedview2834"
     showgrid="false"
     inkscape:zoom="1.2020815"
     inkscape:cx="104.62542"
     inkscape:cy="34.379233"
     inkscape:window-x="0"
     inkscape:window-y="23"
     inkscape:window-maximized="1"
     inkscape:current-layer="svg2832"
     inkscape:document-rotation="0" />
  <g
     id="g2852"
     transform="translate(-15.695815,0.88235142)">
    <path
       sodipodi:nodetypes="ccccccccccccc"
       style="fill:#72c351"
       d="m 15.588235,74.117647 l 0,-66.6176472 l 8.235294,-8.38235264 l 66.764706,0 l 66.323525,0 l 8.67647,10.58823504 l 0,64.4117648 l 0,66.323533 l -7.79411,8.67647 l -67.205885,0 l -65.294117,0 l -9.705883,-9.41177 l 0,-65.588233 z"
       id="path2848" />
    <path
       sodipodi:nodetypes="cscccccsscccccccccscccccccccccccsssssssscccccsccssscccsccccccscccsccssssssssssssssssscccccccsssccssssssssssccsssssssscccsssc"
       style="fill:#140404"
       d="m 20.971176,147.5455 c -1.714382,-0.85189 -3.626882,-2.66783 -4.25,-4.03542 c -0.808202,-1.77381 -1.132941,-21.84951 -1.132941,-70.039486 l 0,-67.5529468 l 3.4,-3.4 l 3.4,-3.40000004 l 67.552947,0 c 48.386048,0 68.261948,0.32304358 70.051808,1.1385574 c 2.83136,1.29005334 4.83514,0.80393374 5.50722,9.73935554 c 0.68956,9.1680359 0.008,28.2079989 -0.14139,65.5442439 l -0.27059,67.533166 l -2.77235,2.77234 l -2.77234,2.77234 l -67.727652,0.23837 c -59.465143,0.20929 -68.107922,0.0494 -70.844712,-1.31052 z m 138.851274,-3.34546 l 3.26578,-2.9176 l 0.27116,-65.63668 c 0.296,-71.6506026 0.35963,-70.780604 -5.3664,-73.3895554 C 156.20513,1.4416054 136.75011,1.1176472 89.617907,1.1176472 l -65.876221,0 L 20.66496,3.7065408 l -3.076725,2.5888937 l 0,67.4880295 l 0,67.488036 l 2.923077,2.92307 l 2.923077,2.92308 l 66.561146,0 l 66.561155,0 l 3.26577,-2.91761 l -1e-5,0 z M 111.2549,122.45098 c -0.36667,-0.36666 -0.66667,-2.53402 -0.66667,-4.81634 c 0,-2.28232 -0.46917,-6.68766 -1.0426,-9.78965 c -0.91784,-4.96505 -0.79927,-6.11696 0.99081,-9.625818 c 1.11838,-2.192208 1.76795,-4.677642 1.44348,-5.523188 c -0.75517,-1.967944 3.37368,-10.578337 5.07252,-10.578337 c 0.70718,0 2.74274,0.29139 4.52346,0.647534 c 3.41752,0.683505 5.7345,4.406424 6.49828,10.441415 c 0.59647,4.713106 1.10742,4.962807 8.70934,4.256284 c 9.99,-0.928474 8.75415,1.401558 -2.2655,4.27129 l -8.42979,2.19528 l -3.18471,-3.6559 l -3.18471,-3.655903 l -2.81529,2.77273 c -2.9345,2.890143 -2.9711,3.076313 -3.19029,16.227273 c -0.11514,6.90849 -0.7152,8.57646 -2.45833,6.83333 z m -45.145482,-7.08333 c -0.313194,-2.0625 -1.287356,-7.88453 -2.164803,-12.93785 c -1.23847,-7.132494 -1.344925,-9.906257 -0.47587,-12.399229 c 0.61572,-1.766254 1.11949,-4.169419 1.11949,-5.340367 c 0,-4.350792 4.253987,-8.705557 10.830163,-11.086732 l 6.240564,-2.259654 l 2.332301,3.136915 c 3.881385,5.220409 5.632517,8.268036 5.072501,8.828051 c -0.292317,0.292318 -0.09331,1.683981 0.442242,3.092585 l 0.973728,2.561099 l 5.804251,-1.386789 c 12.085775,-2.887612 11.998535,-1.472822 -0.279053,4.525414 l -8.600087,4.201585 L 82.81233,91.710163 c -2.525884,-2.525884 -4.951435,-4.592516 -5.390114,-4.592516 c -0.438679,0 -2.380784,1.537483 -4.315789,3.416629 l -3.518192,3.416629 l 0,12.583375 c 0,10.34434 -0.25884,12.58337 -1.454687,12.58337 c -0.91307,0 -1.666705,-1.39622 -2.02413,-3.75 z M 36.832924,89.498824 c -3.984579,-3.600769 -7.244689,-6.986371 -7.244689,-7.523558 c 0,-1.508242 7.275129,-9.857619 8.589318,-9.857619 c 0.641186,0 1.725993,0.675 2.410682,1.5 c 1.890567,2.277993 4.306697,1.791734 6.242432,-1.256323 c 0.958338,-1.509022 3.579616,-4.993677 5.825064,-7.743677 c 2.245447,-2.75 5.709192,-7.395075 7.697211,-10.322388 c 1.988018,-2.927313 4.822922,-5.947247 6.299786,-6.710963 c 2.501755,-1.293707 3.359875,-1.066722 12.560357,3.322388 c 10.568696,5.041821 11.154996,5.395689 15.220353,9.186423 c 2.376254,2.215733 2.46084,2.51395 0.806194,2.842313 c -1.016731,0.20177 -4.505472,-0.825478 -7.752756,-2.282773 c -3.247285,-1.457295 -6.352914,-2.372278 -6.901398,-2.033296 c -0.548483,0.338981 -0.997243,2.395447 -0.997243,4.569923 c 0,3.841338 -0.159696,4.024218 -5.62443,6.440983 c -3.093437,1.368064 -5.733638,2.48739 -5.867114,2.48739 c -0.133476,0 -1.433867,-1.8 -2.889758,-4 c -1.455891,-2.2 -3.161662,-4 -3.790602,-4 c -0.62894,0 -4.225377,3.131127 -7.992084,6.958059 l -6.848558,6.95806 l 3.083273,3.511654 c 3.662202,4.171017 3.398648,5.731525 -1.830349,10.837504 l -3.751,3.662754 l -7.244689,-6.546854 z m 96.319176,2.924673 c -1.48147,-3.860642 0.0478,-6.203355 4.74029,-7.261678 c 2.90557,-0.655316 3.91777,-0.456419 5.26757,1.035073 c 2.43668,2.692501 1.30643,4.258182 -4.38859,6.079379 c -4.41027,1.410347 -5.12735,1.429135 -5.61927,0.147226 z m 0.58138,-15.319037 c -1.49679,-4.293722 -3.98973,-4.919597 -6.5927,-1.655161 c -2.7829,3.49009 -8.8008,3.723199 -12.25852,0.474845 c -2.08303,-1.956909 -2.69088,-2.06477 -5.63545,-1 c -1.81531,0.656427 -3.54241,1.193503 -3.83799,1.193503 c -1.03496,0 -7.934764,-11.157462 -7.572284,-12.244902 c 0.201349,-0.604048 2.249574,0.603348 4.551614,2.6831 c 4.66114,4.211064 4.72506,4.206511 12.71694,-0.905829 c 3.03708,-1.942803 6.21293,-3.532369 7.05744,-3.532369 c 2.6354,0 13.13057,7.766623 13.78208,10.199002 c 0.91596,3.419736 0.77075,7.800998 -0.25854,7.800998 c -0.49621,0 -1.37487,-1.355934 -1.95259,-3.013187 z m -4.3938,-17.14437 c 0.53516,-2.046386 0.32129,-2.124261 -4.15041,-1.511346 c -4.13725,0.567074 -5.01384,0.347005 -7.15783,-1.796988 c -3.11767,-3.117668 -3.11335,-6.954869 0.0113,-10.079564 c 2.96742,-2.967422 5.8691,-3.13089 8.52001,-0.479981 c 1.83987,1.839863 2.47202,3.492476 3.26116,8.525436 c 0.21494,1.370964 0.961,1.910492 2.37205,1.715414 c 1.57871,-0.218259 2.03909,0.247873 1.97535,2 c -0.0787,2.163767 -1.67026,3.558141 -4.2395,3.714301 c -0.70055,0.04258 -0.93397,-0.780206 -0.59217,-2.087272 l 4e-5,0 z M 54.088235,45.951005 C 48.861791,42.846043 48.088957,37.291994 52.275326,32.922366 c 3.432663,-3.582928 7.202527,-3.642374 10.676545,-0.168355 c 4.858981,4.85898 2.659911,12.754172 -3.863636,13.87139 c -1.65,0.282578 -3.9,-0.0209 -5,-0.674396 z"
       id="path2846" />
  </g>
  <path
     style="fill:#ff7f2a;stroke-width:0.83189"
     d="M 4.9674083,144.36166 1.8869618,141.20699 V 74.569045 7.9310965 L 4.8491716,5.3302417 7.8113815,2.729387 75.121089,2.9563659 l 67.309701,0.226979 1.80635,1.8066323 c 2.92607,2.926545 3.38348,14.5332588 3.08678,78.3268418 l -0.27209,58.504321 -3.10737,2.8476 -3.10738,2.84758 H 74.442469 8.0478548 Z M 97.918762,122.35164 c 0.217855,-1.02947 0.518533,-5.69761 0.668166,-10.37365 0.258792,-8.08734 0.390306,-8.62532 2.697092,-11.0331 l 2.42505,-2.531188 3.46491,3.400558 c 3.89658,3.8242 3.65231,3.82694 16.00305,-0.17921 6.92943,-2.247662 6.34515,-3.602995 -1.57882,-3.662284 -8.38693,-0.06272 -7.9911,0.138261 -9.00103,-4.570888 -1.29768,-6.050846 -2.96781,-8.797069 -5.9909,-9.850923 -5.05057,-1.76064 -6.34806,-1.277621 -8.621965,3.209718 -1.151561,2.272483 -2.093744,5.066254 -2.093744,6.208381 0,1.142119 -0.740524,3.955314 -1.645612,6.25154 -1.469925,3.729226 -1.553613,4.909306 -0.78389,11.053346 0.473953,3.78311 1.050245,8.46937 1.280645,10.41392 0.457507,3.8613 2.487078,4.92416 3.177048,1.66378 z m -44.127656,-3.60358 c 0.277721,-0.72372 0.504948,-6.26104 0.504948,-12.30514 V 95.453644 l 3.747933,-3.678319 3.747934,-3.67832 4.888487,4.837476 4.888487,4.837475 9.249222,-4.731085 c 5.087075,-2.602103 9.249222,-5.073425 9.249222,-5.491824 0,-1.090034 -3.799643,-0.917201 -9.544904,0.434164 -2.733229,0.642893 -5.259107,0.989916 -5.613063,0.771162 C 74.555417,88.535611 74.026679,86.86114 73.7344,85.033328 73.258301,82.05597 71.926635,79.611313 67.476668,73.545452 l -1.377467,-1.877659 -5.101285,1.860022 c -2.805707,1.023011 -6.591609,3.208492 -8.413116,4.856622 -3.328063,3.011289 -3.850991,4.378126 -5.471357,14.301134 -0.470641,2.882167 1.449117,17.857529 3.10984,24.258779 0.831779,3.20609 2.672572,4.1367 3.567823,1.80371 z M 36.826356,86.890431 c 0,-0.939395 -1.183417,-3.055831 -2.629815,-4.703188 l -2.629816,-2.995195 6.561779,-6.600491 c 3.608978,-3.630269 7.015239,-6.600491 7.569467,-6.600491 0.55423,0 2.217462,1.684578 3.696072,3.743507 1.478611,2.058929 2.905687,3.734668 3.17128,3.723865 0.265592,-0.01081 2.916175,-1.227443 5.890183,-2.703644 5.293464,-2.627504 5.412718,-2.759379 5.665305,-6.264849 0.32577,-4.521117 1.49674,-4.980176 7.030667,-2.756262 10.399402,4.179197 13.058296,2.633052 5.397643,-3.138728 C 71.30624,54.644802 56.634812,47.689479 53.545314,47.689479 c -3.435889,0 -4.975368,1.527116 -15.045807,14.924983 -9.397178,12.502149 -11.109083,13.943092 -13.352933,11.239418 -0.58791,-0.708389 -1.830388,-1.176327 -2.761061,-1.039863 -1.767081,0.259107 -8.852086,8.303196 -8.852086,10.050376 0,0.552796 3.275568,4.096599 7.27904,7.875112 l 7.279041,6.870033 4.367424,-4.50556 c 2.402084,-2.47806 4.367424,-5.274151 4.367424,-6.213547 z m 88.804294,5.743529 c 3.93117,-1.784421 4.3942,-3.323185 1.7851,-5.932293 -3.15137,-3.151367 -10.72792,-0.236947 -10.72792,4.126642 0,1.285811 0.24957,2.587412 0.5546,2.892433 1.02371,1.023724 4.82316,0.531461 8.38822,-1.086782 z m -4.78337,-15.924422 c 0,-3.94222 -0.25924,-4.492525 -3.52091,-7.473985 -1.9365,-1.770136 -5.13079,-4.066581 -7.09842,-5.103211 l -3.5775,-1.884782 -7.758635,4.103028 -7.758633,4.103028 -3.738191,-3.063165 c -3.437504,-2.816777 -5.646556,-3.816618 -5.646556,-2.555693 0,1.124429 5.270017,10.301434 6.614427,11.518109 1.264548,1.144396 1.839642,1.163171 4.701412,0.153481 3.055516,-1.078051 3.441713,-1.026327 6.139575,0.822275 4.070561,2.789199 8.135091,2.609409 12.091641,-0.534864 2.91022,-2.312746 3.26874,-2.404931 4.61497,-1.186612 0.80279,0.726518 1.6876,2.229268 1.96624,3.339444 0.27863,1.110176 1.061,2.018502 1.73859,2.018502 0.9275,0 1.23199,-1.051765 1.23199,-4.255555 z m -3.27641,-14.929071 c 2.11841,-2.118417 1.79576,-4.436288 -0.66647,-4.787841 -1.38412,-0.197622 -2.0756,-1.134536 -2.76287,-3.743507 -1.21384,-4.607962 -2.90823,-7.124421 -5.44692,-8.089629 -4.35978,-1.657585 -9.799667,3.791856 -8.833018,8.848535 0.212228,1.110229 1.525068,2.977168 2.917418,4.148754 2.23068,1.876984 3.00991,2.064365 6.55641,1.576598 3.91968,-0.539095 4.02485,-0.497178 4.02485,1.604229 0,2.646347 1.8161,2.83736 4.2106,0.442861 z M 47.982926,45.129981 c 2.455763,-2.918509 2.763523,-6.326496 0.89723,-9.935509 -1.546911,-2.991397 -3.586224,-4.1428 -7.337535,-4.1428 -3.903042,0 -8.043826,4.54435 -8.043826,8.827786 0,4.453825 3.694344,7.810021 8.596907,7.810021 3.147824,0 4.07142,-0.401538 5.887224,-2.559498 z"
     id="path18" />
</svg>
